<?xml version="1.0" encoding="utf-8"?>
<!-- Generator: Adobe Illustrator 22.0.1, SVG Export Plug-In . SVG Version: 6.00 Build 0)  -->
<svg version="1.1" id="Layer_1" xmlns="http://www.w3.org/2000/svg" xmlns:xlink="http://www.w3.org/1999/xlink" x="0px" y="0px"
	 viewBox="0 0 504 540" style="enable-background:new 0 0 504 540;" xml:space="preserve">
<style type="text/css">
	.st0{fill:#15AE95;}
	.st1{fill:#919191;}
	.st2{fill:#F9A029;}
	.st3{fill:none;stroke:#15AE95;stroke-width:16;stroke-linecap:round;stroke-miterlimit:10;}
	.st4{fill:none;stroke:#F9A029;stroke-width:16;stroke-linecap:round;stroke-miterlimit:10;}
	.st5{fill:none;stroke:#919191;stroke-width:16;stroke-linecap:round;stroke-miterlimit:10;}
	.st6{fill:#333333;}
</style>
<title>Artboard 1</title>
<circle class="st0" cx="253.9" cy="93.5" r="71"/>
<circle class="st1" cx="110.3" cy="343.6" r="71"/>
<circle class="st2" cx="395.1" cy="345.9" r="71"/>
<line class="st3" x1="182.9" y1="165" x2="123" y2="253.4"/>
<line class="st4" x1="324.5" y1="164.6" x2="384.3" y2="252.7"/>
<line class="st5" x1="200.5" y1="362.9" x2="303.4" y2="362.9"/>
<path class="st6" d="M24.3,474.5h13.5c3.1,0,6.3,0.4,9.3,1.1c2.8,0.7,5.4,1.9,7.7,3.6c2.2,1.7,4,3.9,5.2,6.4c1.4,3,2,6.3,1.9,9.5
	c0.1,3-0.6,6-1.9,8.8c-1.2,2.5-2.9,4.6-5.1,6.4c-2.2,1.8-4.7,3.1-7.3,3.9c-2.8,0.9-5.8,1.3-8.7,1.3H24.3V474.5z M33.3,507.1H38
	c2,0,3.9-0.2,5.8-0.6c1.7-0.4,3.3-1.1,4.7-2.1c1.3-1,2.4-2.4,3.1-3.9c0.8-1.9,1.2-3.9,1.1-5.9c0-1.8-0.3-3.6-1.1-5.2
	c-0.7-1.4-1.7-2.7-3-3.7s-2.9-1.7-4.5-2.2c-1.8-0.5-3.6-0.7-5.4-0.7h-5.3L33.3,507.1z"/>
<path class="st1" d="M71.5,495c0-3,0.5-6.1,1.7-8.9c1-2.6,2.6-4.9,4.6-6.8s4.4-3.4,7-4.3c5.7-2,12-2,17.7,0c2.6,0.9,5,2.4,7,4.3
	s3.6,4.2,4.6,6.8c2.2,5.7,2.2,12.1,0,17.8c-1,2.6-2.6,4.9-4.6,6.8s-4.4,3.4-7,4.3c-5.7,2-12,2-17.7,0c-2.6-0.9-5-2.4-7-4.3
	c-2-1.9-3.6-4.2-4.6-6.8C72.1,501.1,71.5,498,71.5,495z M80.9,495c0,1.8,0.3,3.6,0.9,5.3c0.6,1.5,1.4,3,2.6,4.2
	c1.1,1.2,2.5,2.1,4,2.8c3.4,1.3,7.1,1.3,10.5,0c1.5-0.6,2.9-1.6,4-2.8c1.1-1.2,2-2.6,2.6-4.2c1.2-3.4,1.2-7.1,0-10.6
	c-0.6-1.6-1.4-3-2.6-4.2c-1.1-1.2-2.5-2.1-4-2.8c-3.4-1.3-7.1-1.3-10.5,0c-1.5,0.6-2.9,1.6-4,2.8c-1.1,1.2-2,2.6-2.6,4.2
	C81.2,491.4,80.9,493.2,80.9,495z"/>
<path class="st6" d="M135.3,482.5h-11.7v-8H156v8h-11.7v33h-9V482.5z"/>
<path class="st6" d="M188.7,474.5h13.5c3.1,0,6.3,0.4,9.4,1.1c2.8,0.7,5.4,1.9,7.7,3.6c2.2,1.7,4,3.9,5.2,6.4c1.4,3,2,6.3,1.9,9.5
	c0.1,3-0.6,6-1.9,8.8c-1.2,2.5-2.9,4.6-5.1,6.4c-2.2,1.7-4.7,3.1-7.4,3.9c-2.8,0.9-5.8,1.3-8.7,1.3h-14.8v-41H188.7z M197.7,507.1
	h4.7c2,0,3.9-0.2,5.8-0.6c1.7-0.4,3.3-1.1,4.7-2.1c1.3-1,2.4-2.4,3.1-3.9c0.8-1.9,1.2-3.9,1.1-5.9c0-1.8-0.3-3.6-1.1-5.2
	c-0.7-1.4-1.7-2.7-3-3.7s-2.9-1.7-4.5-2.2c-1.8-0.5-3.6-0.7-5.4-0.7h-5.3L197.7,507.1z"/>
<path class="st0" d="M236,495c0-3,0.5-6.1,1.6-8.9c1-2.6,2.6-4.9,4.6-6.8s4.4-3.4,7-4.3c5.7-2,12-2,17.7,0c2.6,0.9,5,2.4,7,4.3
	s3.6,4.2,4.6,6.8c2.2,5.7,2.2,12.1,0,17.8c-1,2.6-2.6,4.9-4.6,6.8s-4.4,3.4-7,4.3c-5.7,2-12,2-17.7,0c-2.6-0.9-5-2.4-7-4.3
	c-2-1.9-3.6-4.2-4.6-6.8C236.5,501.1,236,498,236,495z M245.4,495c0,1.8,0.3,3.6,0.9,5.3c0.6,1.5,1.4,3,2.6,4.2
	c1.1,1.2,2.5,2.1,4,2.8c3.4,1.3,7.1,1.3,10.5,0c1.5-0.6,2.9-1.6,4-2.8c1.1-1.2,2-2.6,2.6-4.2c1.2-3.4,1.2-7.1,0-10.6
	c-0.6-1.6-1.4-3-2.6-4.2c-1.1-1.2-2.5-2.1-4-2.8c-3.4-1.3-7.1-1.3-10.5,0c-3.1,1.3-5.5,3.8-6.6,7C245.6,491.4,245.3,493.2,245.4,495
	L245.4,495z"/>
<path class="st6" d="M299.7,482.5H288v-8h32.4v8h-11.6v33h-9L299.7,482.5z"/>
<path class="st6" d="M353.1,474.5h13.5c3.1,0,6.3,0.4,9.4,1.1c2.8,0.7,5.4,1.9,7.7,3.6c2.2,1.7,4,3.9,5.2,6.4c1.4,3,2,6.3,1.9,9.5
	c0.1,3-0.6,6-1.9,8.8c-1.2,2.5-2.9,4.6-5.1,6.4c-2.2,1.7-4.7,3.1-7.4,3.9c-2.8,0.9-5.8,1.3-8.7,1.3h-14.8v-41H353.1z M362.1,507.1
	h4.7c2,0,3.9-0.2,5.8-0.6c1.7-0.4,3.3-1.1,4.7-2.1c1.3-1,2.4-2.4,3.1-3.9c0.8-1.9,1.2-3.9,1.1-5.9c0-1.8-0.3-3.6-1.1-5.2
	c-0.7-1.4-1.7-2.7-3-3.7s-2.9-1.7-4.5-2.2c-1.8-0.5-3.6-0.7-5.4-0.7h-5.3L362.1,507.1z"/>
<path class="st2" d="M400.4,495c0-3,0.5-6.1,1.6-8.9c1-2.6,2.6-4.9,4.6-6.8s4.4-3.4,7-4.3c5.7-2,12-2,17.7,0c2.6,0.9,5,2.4,7,4.3
	s3.6,4.2,4.6,6.8c2.2,5.7,2.2,12.1,0,17.8c-1,2.6-2.6,4.9-4.6,6.8s-4.4,3.4-7,4.3c-5.7,2-12,2-17.7,0c-2.6-0.9-5-2.4-7-4.3
	c-2-1.9-3.6-4.2-4.6-6.8C400.9,501.1,400.3,498,400.4,495z M409.8,495c0,1.8,0.3,3.6,0.9,5.3c0.6,1.5,1.4,3,2.6,4.2
	c1.1,1.2,2.5,2.1,4,2.8c3.4,1.3,7.1,1.3,10.5,0c1.5-0.6,2.9-1.6,4-2.8c1.1-1.2,2-2.6,2.6-4.2c1.2-3.4,1.2-7.1,0-10.6
	c-0.6-1.6-1.4-3-2.6-4.2c-1.1-1.2-2.5-2.1-4-2.8c-3.4-1.3-7.1-1.3-10.5,0c-3.1,1.3-5.5,3.8-6.6,7C410,491.4,409.7,493.2,409.8,495z"
	/>
<path class="st6" d="M464.1,482.5h-11.7v-8h32.4v8h-11.7v33h-9L464.1,482.5z"/>
</svg>
