<?xml version="1.0" standalone="no"?>
<!DOCTYPE svg PUBLIC "-//W3C//DTD SVG 20010904//EN"
 "http://www.w3.org/TR/2001/REC-SVG-20010904/DTD/svg10.dtd">
<svg version="1.0" xmlns="http://www.w3.org/2000/svg"
 width="720.000000pt" height="720.000000pt" viewBox="0 0 720.000000 720.000000"
 preserveAspectRatio="xMidYMid meet">
<metadata>
Created by potrace 1.11, written by Peter Selinger 2001-2013
</metadata>
<g transform="translate(0.000000,720.000000) scale(0.100000,-0.100000)"
fill="#000000" stroke="none">
<path d="M0 3600 l0 -3600 3600 0 3600 0 0 3600 0 3600 -3600 0 -3600 0 0
-3600z m480 2750 c96 -5 459 -10 805 -10 762 0 882 -9 1120 -81 207 -63 356
-152 492 -292 192 -198 292 -429 310 -719 3 -60 6 -108 7 -109 15 -11 421 -22
1061 -28 875 -9 899 -11 1118 -68 241 -62 411 -155 558 -304 123 -126 208
-277 256 -457 24 -88 27 -115 27 -287 1 -205 -7 -253 -71 -415 -111 -282 -379
-547 -675 -668 -37 -15 -67 -31 -65 -35 1 -5 245 -347 542 -760 595 -828 648
-893 779 -958 38 -18 131 -54 205 -79 135 -45 136 -46 148 -83 8 -24 10 -56 5
-94 l-7 -58 -65 2 c-36 1 -153 7 -260 13 -107 5 -254 10 -327 10 -73 0 -154 5
-180 10 -106 23 -240 120 -354 257 -35 41 -308 427 -605 857 l-541 781 -242 3
-241 2 2 -748 3 -748 24 -35 c13 -19 39 -45 57 -57 46 -30 176 -66 309 -86
204 -31 218 -41 217 -147 -1 -100 -3 -102 -81 -95 -317 28 -1106 32 -1485 6
-87 -6 -161 -8 -165 -5 -3 4 -7 40 -9 80 -6 102 9 116 144 140 122 22 237 58
286 91 21 13 47 42 58 64 20 39 20 53 20 1754 0 1187 -3 1723 -11 1743 -24 65
-106 120 -220 148 -115 27 -240 44 -245 31 -2 -6 -18 -51 -35 -101 -108 -313
-343 -564 -672 -720 -125 -59 -207 -87 -347 -117 -84 -18 -140 -21 -487 -25
l-393 -5 0 -694 c0 -663 1 -696 19 -732 10 -20 30 -47 43 -58 57 -53 195 -99
396 -133 132 -22 156 -31 172 -61 12 -22 13 -149 2 -168 -7 -10 -43 -10 -193
0 -249 17 -1120 17 -1353 0 -116 -8 -183 -9 -189 -3 -5 5 -10 41 -11 80 -1 99
10 109 187 150 178 42 254 79 284 141 l23 44 0 1708 c0 1857 3 1746 -53 1806
-45 48 -162 90 -314 112 -135 19 -153 35 -153 133 0 101 -1 100 104 93 50 -4
170 -11 266 -16z"/>
<path d="M1250 5145 l0 -927 283 5 c232 4 298 8 372 25 333 74 515 237 592
530 47 181 43 482 -8 686 -78 305 -294 508 -620 581 -55 12 -145 18 -346 22
l-273 5 0 -927z"/>
<path d="M4280 3945 l0 -895 183 0 c400 1 600 38 786 147 138 81 234 216 283
398 19 71 22 105 22 310 0 217 -1 235 -26 326 -97 355 -341 550 -748 599 -46
5 -178 10 -292 10 l-208 0 0 -895z"/>
</g>
</svg>
